<svg xmlns="http://www.w3.org/2000/svg" width="26.4" height="26.4" viewBox="0 0 26.4 26.4"><defs><style>.a{fill:#0077b7;}</style></defs><path class="a" d="M24.012,0H2.388A2.388,2.388,0,0,0,0,2.388V24.012A2.388,2.388,0,0,0,2.388,26.4H24.012A2.388,2.388,0,0,0,26.4,24.012V2.388A2.388,2.388,0,0,0,24.012,0ZM8.169,22.8a.7.7,0,0,1-.695.695H4.516a.7.7,0,0,1-.695-.695v-12.4A.7.7,0,0,1,4.516,9.7H7.474a.7.7,0,0,1,.695.695ZM6,8.53a2.81,2.81,0,1,1,2.81-2.81A2.81,2.81,0,0,1,6,8.53ZM23.629,22.851a.639.639,0,0,1-.639.639H19.816a.639.639,0,0,1-.639-.639V17.035c0-.868.255-3.8-2.268-3.8-1.956,0-2.353,2.009-2.433,2.91v6.709a.639.639,0,0,1-.639.639h-3.07a.639.639,0,0,1-.639-.639V10.338a.639.639,0,0,1,.639-.639h3.07a.639.639,0,0,1,.639.639V11.42c.725-1.089,1.8-1.929,4.1-1.929,5.083,0,5.054,4.749,5.054,7.358v6Z"/></svg>