<svg xmlns="http://www.w3.org/2000/svg" xmlns:xlink="http://www.w3.org/1999/xlink" width="50.278" height="54" viewBox="0 0 50.278 54"><defs><style>.a{opacity:0.6;}.b{fill:none;}.c{fill:url(#a);}</style><linearGradient id="a" x1="0.5" x2="0.5" y2="1" gradientUnits="objectBoundingBox"><stop offset="0" stop-color="#ace6f6"/><stop offset="1" stop-color="#4b89ac"/></linearGradient></defs><g class="a"><path class="b" d="M0,0H50.278V54H0Z"/><path class="c" d="M43.993,14.25V12l-6.285,4.5L31.424,12v2.25l5.7,4.1a.987.987,0,0,0,1.152,0ZM46.088,3H4.19A4.366,4.366,0,0,0,0,7.5V39a4.366,4.366,0,0,0,4.19,4.5h41.9A4.349,4.349,0,0,0,50.257,39l.021-31.5A4.366,4.366,0,0,0,46.088,3ZM16.759,9.75a6.521,6.521,0,0,1,6.285,6.75,6.521,6.521,0,0,1-6.285,6.75,6.521,6.521,0,0,1-6.285-6.75A6.521,6.521,0,0,1,16.759,9.75Zm12.57,27H4.19V34.5c0-4.5,8.38-6.975,12.57-6.975S29.329,30,29.329,34.5Zm15.712-13.5H30.376a1.078,1.078,0,0,1-1.047-1.125V10.875A1.078,1.078,0,0,1,30.376,9.75H45.041a1.078,1.078,0,0,1,1.047,1.125v11.25A1.078,1.078,0,0,1,45.041,23.25Z" transform="translate(0 3.75)"/></g></svg>