<svg xmlns="http://www.w3.org/2000/svg" xmlns:xlink="http://www.w3.org/1999/xlink" width="223" height="213" viewBox="0 0 223 213"><defs><style>.a{fill:#fff;}.b,.c,.d,.f{fill:none;}.b,.c,.d{stroke:#4b89ac;stroke-width:4px;}.b{stroke-linecap:round;}.b,.d{stroke-linejoin:round;}.e{stroke:none;}.g{filter:url(#a);}</style><filter id="a" x="0" y="0" width="223" height="213" filterUnits="userSpaceOnUse"><feOffset dy="9" input="SourceAlpha"/><feGaussianBlur stdDeviation="7.5" result="b"/><feFlood flood-color="#414141" flood-opacity="0.271"/><feComposite operator="in" in2="b"/><feComposite in="SourceGraphic"/></filter></defs><g transform="translate(-988.5 -8664.5)"><g class="g" transform="matrix(1, 0, 0, 1, 988.5, 8664.5)"><rect class="a" width="178" height="168" rx="34" transform="translate(22.5 13.5)"/></g><g transform="translate(1040.539 8690.966)"><path class="b" d="M890.346,10347.01c-1.283,2.078-4.934,2.107-6.187,1.727s-3.223-1.318-3.223-3.743,13.383-68.931,13.383-68.931-.55-21.692-1.039-23c-.122-.651-7.5,6.52-7.5,6.52l-2.526-2.363,13.036,11.243s.377,3.105-.968,4.482a4.215,4.215,0,0,1-4.369.915c-1.13-.4-16.438-13.321-16.438-13.321a5.827,5.827,0,0,1-1.039-2.566c-.061-1.223-.031-1.13,1.039-2.627s17.355-16.256,17.355-16.256l26.032-.488,36.971-23.017a5.026,5.026,0,0,1,5.683,6.945l-40.881,27.536-1.3,25.4s21.445,19.277,22.325,22.6-1.662,31-1.662,31-1.271,3.618-4.6,3.52-4.693-3.52-4.693-3.52l.782-24.639-17.208-15.546h-8.506S891.63,10344.933,890.346,10347.01Z" transform="translate(-872.943 -10206.949)"/><g class="c" transform="translate(20.461 0.034)"><ellipse class="e" cx="12" cy="14" rx="12" ry="14"/><ellipse class="f" cx="12" cy="14" rx="10" ry="12"/></g><path class="c" d="M931.625,10252.625v7.64l1.894,3.361h2.933l2.078-3.606v-7.395" transform="translate(-902.672 -10225.921)"/><path class="c" d="M932.289,10275.125l-1.467,1.614-1.536,14.737,5.028,5.935,4.749-5.935-1.955-14.737-1.746-1.614" transform="translate(-901.476 -10237.421)"/><path class="d" d="M872.4,10403.8h39.3v-15.84l33.145-.2h6.714l46.361-46.719,7.007,5.866,4.644-25.748-27.132,5.3,6.029,6.029-36.909,38.132v17.144" transform="translate(-872.4 -10260.955)"/></g></g></svg>