<svg xmlns="http://www.w3.org/2000/svg" width="156" height="156" viewBox="0 0 156 156"><defs><style>.a{fill:#e4fcf9;}.b{fill:#264556;}</style></defs><g transform="translate(-1270 -1899)"><circle class="a" cx="78" cy="78" r="78" transform="translate(1270 1899)"/><g transform="translate(1296 1945.8)"><ellipse class="b" cx="15.5" cy="15" rx="15.5" ry="15" transform="translate(38 0.2)"/><circle class="b" cx="9" cy="9" r="9" transform="translate(83 17.2)"/><circle class="b" cx="9" cy="9" r="9" transform="translate(5 17.2)"/><path class="b" d="M46,22H0A21.383,21.383,0,0,1,6.738,6.444,23.385,23.385,0,0,1,23,0,23.387,23.387,0,0,1,39.264,6.444,21.385,21.385,0,0,1,46,22Z" transform="translate(30 33.2)"/><path class="b" d="M28,16H0A17.113,17.113,0,0,1,4.1,4.686,13.09,13.09,0,0,1,14,0a13.091,13.091,0,0,1,9.9,4.686A17.114,17.114,0,0,1,28,16Z" transform="translate(77 39.2)"/><path class="b" d="M28,16H0A17.113,17.113,0,0,1,4.1,4.686,13.09,13.09,0,0,1,14,0a13.091,13.091,0,0,1,9.9,4.686A17.114,17.114,0,0,1,28,16Z" transform="translate(0 39.2)"/></g></g></svg>