<svg xmlns="http://www.w3.org/2000/svg" xmlns:xlink="http://www.w3.org/1999/xlink" width="49.556" height="53.225" viewBox="0 0 49.556 53.225"><defs><style>.a{opacity:0.59;}.b{fill:none;}.c{fill:url(#a);}</style><linearGradient id="a" x1="0.5" x2="0.5" y2="1" gradientUnits="objectBoundingBox"><stop offset="0" stop-color="#ace6f6"/><stop offset="1" stop-color="#4b89ac"/></linearGradient></defs><g class="a"><path class="b" d="M0,0H49.556V53.225H0Z"/><path class="c" d="M45.427,3H4.13A4.3,4.3,0,0,0,0,7.435V38.483a4.3,4.3,0,0,0,4.13,4.435h41.3a4.287,4.287,0,0,0,4.109-4.435l.021-31.048A4.3,4.3,0,0,0,45.427,3ZM16.519,9.653a6.427,6.427,0,0,1,6.195,6.653,6.427,6.427,0,0,1-6.195,6.653,6.427,6.427,0,0,1-6.195-6.653A6.427,6.427,0,0,1,16.519,9.653ZM28.908,36.266H4.13V34.048c0-4.435,8.259-6.875,12.389-6.875s12.389,2.439,12.389,6.875Zm7.95-8.871h2.87a1,1,0,0,1,.826.444l2.271,3.216a1.145,1.145,0,0,1-.1,1.442l-2.808,3.016a.991.991,0,0,1-1.383.089,16.937,16.937,0,0,1-4.914-8.228,17.185,17.185,0,0,1-.578-4.413,17.488,17.488,0,0,1,.578-4.435A16.836,16.836,0,0,1,38.53,10.3a.97.97,0,0,1,1.383.089L42.722,13.4a1.15,1.15,0,0,1,.1,1.442l-2.271,3.216a.969.969,0,0,1-.826.444h-2.87a14.04,14.04,0,0,0,0,8.893Z" transform="translate(0 3.653)"/></g></svg>